<?xml version="1.0" standalone="no"?>
<!DOCTYPE svg PUBLIC "-//W3C//DTD SVG 20010904//EN"
 "http://www.w3.org/TR/2001/REC-SVG-20010904/DTD/svg10.dtd">
<svg version="1.0" xmlns="http://www.w3.org/2000/svg"
 width="151.000000pt" height="152.000000pt" viewBox="0 0 151.000000 152.000000"
 preserveAspectRatio="xMidYMid meet">
<metadata>
Created by potrace 1.15, written by Peter Selinger 2001-2017
</metadata>
<g transform="translate(0.000000,152.000000) scale(0.100000,-0.100000)"
fill="#000000" stroke="none">
<path d="M694 1505 c-44 -19 -56 -38 -74 -113 l-16 -67 -72 -37 -73 -38 -52
39 c-29 21 -62 42 -74 45 -29 9 -68 -12 -116 -62 -51 -53 -52 -90 -3 -166 37
-58 37 -64 6 -131 -5 -11 -10 -29 -12 -40 -3 -19 -55 -41 -140 -59 -57 -13
-86 -112 -53 -188 12 -29 23 -38 64 -52 27 -9 60 -16 73 -16 34 0 45 -10 63
-60 31 -81 30 -104 -4 -160 -47 -75 -43 -111 18 -171 55 -56 83 -61 146 -28
22 12 42 24 45 28 25 32 38 32 106 0 38 -17 72 -36 77 -43 7 -10 18 -48 31
-108 13 -59 121 -87 195 -50 30 15 36 24 48 75 19 84 27 94 100 127 64 29 67
30 91 13 106 -77 141 -81 201 -23 71 69 75 107 20 186 -16 23 -29 51 -29 61 0
27 47 137 62 145 7 4 42 12 77 19 54 10 66 17 82 43 26 42 25 121 -1 164 -11
18 -26 34 -33 36 -6 2 -38 10 -71 17 -42 9 -60 18 -66 33 -5 12 -18 46 -30 77
l-22 55 30 45 c41 61 48 105 23 146 -24 38 -96 93 -122 93 -9 0 -46 -19 -82
-43 l-64 -43 -59 25 c-82 36 -80 34 -88 97 -9 77 -27 108 -76 128 -48 19 -84
19 -126 1z m169 -339 c30 -8 72 -25 93 -39 153 -96 222 -228 212 -400 -7 -101
-35 -172 -98 -245 -135 -158 -340 -195 -531 -96 -43 22 -140 128 -165 180 -56
116 -54 262 6 389 76 163 297 259 483 211z"/>
<path d="M683 1040 c-30 -12 -29 -25 6 -85 36 -63 47 -73 91 -77 27 -2 41 -12
67 -46 19 -26 33 -55 33 -72 0 -23 9 -34 48 -58 92 -57 109 -51 119 40 5 47 1
61 -27 116 -69 130 -153 193 -259 191 -31 0 -66 -4 -78 -9z"/>
<path d="M476 821 c-34 -64 -11 -178 47 -241 95 -104 219 -146 294 -100 l33
19 -41 66 c-30 46 -49 67 -68 71 -62 13 -111 59 -113 106 -1 13 -6 29 -12 36
-8 11 -73 49 -118 70 -4 2 -14 -10 -22 -27z"/>
</g>
</svg>
